<svg width="1120" height="110" viewBox="0 0 1120 110" fill="none" xmlns="http://www.w3.org/2000/svg">
<line x1="2.18557e-08" y1="56.75" x2="356" y2="56.75" stroke="#773320" stroke-width="0.5"/>
<line x1="764" y1="56.75" x2="1120" y2="56.75" stroke="#773320" stroke-width="0.5"/>
<circle cx="557" cy="55" r="55" fill="#773320"/>
<path d="M524.528 45.96L529.136 59.064L533.696 45.96H537.176L530.72 63H527.528L521.048 45.96H524.528ZM538.683 63V50.424H541.899V63H538.683ZM538.683 48.672V45.48H541.899V48.672H538.683ZM549.432 63.24C548.36 63.24 547.336 63.064 546.36 62.712C545.384 62.36 544.544 61.84 543.84 61.152L544.992 59.064C545.744 59.672 546.48 60.12 547.2 60.408C547.936 60.696 548.64 60.84 549.312 60.84C549.936 60.84 550.432 60.728 550.8 60.504C551.184 60.28 551.376 59.944 551.376 59.496C551.376 59.192 551.272 58.96 551.064 58.8C550.856 58.624 550.552 58.472 550.152 58.344C549.768 58.216 549.296 58.072 548.736 57.912C547.808 57.608 547.032 57.312 546.408 57.024C545.784 56.736 545.312 56.376 544.992 55.944C544.688 55.496 544.536 54.928 544.536 54.24C544.536 53.408 544.744 52.696 545.16 52.104C545.592 51.496 546.184 51.024 546.936 50.688C547.704 50.352 548.6 50.184 549.624 50.184C550.52 50.184 551.368 50.328 552.168 50.616C552.968 50.888 553.696 51.336 554.352 51.96L553.056 54C552.416 53.504 551.808 53.144 551.232 52.92C550.656 52.68 550.072 52.56 549.48 52.56C549.144 52.56 548.824 52.6 548.52 52.68C548.232 52.76 547.992 52.896 547.8 53.088C547.624 53.264 547.536 53.52 547.536 53.856C547.536 54.16 547.616 54.4 547.776 54.576C547.952 54.736 548.208 54.88 548.544 55.008C548.896 55.136 549.32 55.28 549.816 55.44C550.824 55.728 551.672 56.024 552.36 56.328C553.064 56.632 553.592 57.008 553.944 57.456C554.296 57.888 554.472 58.488 554.472 59.256C554.472 60.504 554.016 61.48 553.104 62.184C552.192 62.888 550.968 63.24 549.432 63.24ZM556.659 63V50.424H559.875V63H556.659ZM556.659 48.672V45.48H559.875V48.672H556.659ZM570.313 62.352C570.041 62.464 569.713 62.592 569.329 62.736C568.945 62.88 568.529 62.992 568.081 63.072C567.649 63.168 567.209 63.216 566.761 63.216C566.169 63.216 565.625 63.112 565.129 62.904C564.633 62.696 564.233 62.368 563.929 61.92C563.641 61.456 563.497 60.856 563.497 60.12V52.896H561.841V50.424H563.497V46.344H566.713V50.424H569.353V52.896H566.713V59.04C566.729 59.472 566.849 59.784 567.073 59.976C567.297 60.168 567.577 60.264 567.913 60.264C568.249 60.264 568.577 60.208 568.897 60.096C569.217 59.984 569.473 59.888 569.665 59.808L570.313 62.352ZM577.679 63.24C576.671 63.24 575.759 63.072 574.943 62.736C574.127 62.384 573.431 61.912 572.855 61.32C572.279 60.712 571.831 60.024 571.511 59.256C571.207 58.472 571.055 57.648 571.055 56.784C571.055 55.584 571.319 54.488 571.847 53.496C572.391 52.504 573.159 51.712 574.151 51.12C575.159 50.512 576.343 50.208 577.703 50.208C579.079 50.208 580.255 50.512 581.231 51.12C582.207 51.712 582.951 52.504 583.463 53.496C583.991 54.472 584.255 55.528 584.255 56.664C584.255 56.856 584.247 57.056 584.231 57.264C584.215 57.456 584.199 57.616 584.183 57.744H574.463C574.527 58.384 574.711 58.944 575.015 59.424C575.335 59.904 575.735 60.272 576.215 60.528C576.711 60.768 577.239 60.888 577.799 60.888C578.439 60.888 579.039 60.736 579.599 60.432C580.175 60.112 580.567 59.696 580.775 59.184L583.535 59.952C583.231 60.592 582.791 61.16 582.215 61.656C581.655 62.152 580.991 62.544 580.223 62.832C579.455 63.104 578.607 63.24 577.679 63.24ZM574.391 55.704H580.967C580.903 55.064 580.719 54.512 580.415 54.048C580.127 53.568 579.743 53.2 579.263 52.944C578.783 52.672 578.247 52.536 577.655 52.536C577.079 52.536 576.551 52.672 576.071 52.944C575.607 53.2 575.223 53.568 574.919 54.048C574.631 54.512 574.455 55.064 574.391 55.704ZM593.702 53.208C592.726 53.208 591.854 53.4 591.086 53.784C590.318 54.152 589.766 54.688 589.43 55.392V63H586.214V50.424H589.166V53.112C589.614 52.248 590.182 51.568 590.87 51.072C591.558 50.576 592.286 50.304 593.054 50.256C593.23 50.256 593.366 50.256 593.462 50.256C593.558 50.256 593.638 50.264 593.702 50.28V53.208Z" fill="white"/>
<circle cx="464" cy="57" r="20" fill="#773320"/>
<circle cx="650" cy="57" r="20" fill="#773320"/>
<circle cx="419.5" cy="58.5" r="12.5" fill="#773320"/>
<circle cx="700.5" cy="58.5" r="12.5" fill="#773320"/>
</svg>
